# xmcd
#
# Track frame offsets: 
#        150
#        18687
#        37672
#        49512
#        64072
#        77085
#        88312
#        101712
#        114772
#        133550
#        148012
#        162500
#
# Disc length: 2387 seconds
#
# Revision: 1
# Processed by: cddbd v1.4PL0 Copyright (c) Steve Scherf et al.
# Submitted via: ExactAudioCopy v0.90b4
#
DISCID=9a09510c
DTITLE=Don Williams - 36 All-Time Greatest Hits - Disc 1
DYEAR=1900
DGENRE=Country
TTITLE0=I Believe In You
TTITLE1=Good Ole Boys Like Me
TTITLE2=I've Got A Winner In You
TTITLE3=Tulsa Time
TTITLE4=Lay Down Beside Me
TTITLE5=It Must Be Love
TTITLE6=Love Me Over Again
TTITLE7=Rake And Ramblin' Man
TTITLE8=Lord, I Hope This Day Is Good
TTITLE9=Listen To The Radio
TTITLE10=If Hollywood Don't Need You (Honey, I Still Do)
TTITLE11=Love Is On A Roll
EXTD=
EXTT0=
EXTT1=
EXTT2=
EXTT3=
EXTT4=
EXTT5=
EXTT6=
EXTT7=
EXTT8=
EXTT9=
EXTT10=
EXTT11=
PLAYORDER=
